<?xml version="1.0" encoding="utf-8"?>
<!-- Generator: Adobe Illustrator 24.0.3, SVG Export Plug-In . SVG Version: 6.00 Build 0)  -->
<svg version="1.1"
	 id="svg2" inkscape:version="0.91 r13725" sodipodi:docname="Apple_1998.svg" xmlns:cc="http://creativecommons.org/ns#" xmlns:dc="http://purl.org/dc/elements/1.1/" xmlns:inkscape="http://www.inkscape.org/namespaces/inkscape" xmlns:rdf="http://www.w3.org/1999/02/22-rdf-syntax-ns#" xmlns:sodipodi="http://sodipodi.sourceforge.net/DTD/sodipodi-0.dtd" xmlns:svg="http://www.w3.org/2000/svg"
	 xmlns="http://www.w3.org/2000/svg" xmlns:xlink="http://www.w3.org/1999/xlink" x="0px" y="0px" viewBox="0 0 420.7 499.5"
	 style="enable-background:new 0 0 420.7 499.5;" xml:space="preserve">
<style type="text/css">
	.st0{fill:#303030;}
</style>
<sodipodi:namedview  bordercolor="#666666" borderopacity="1" gridtolerance="10" guidetolerance="10" id="namedview6" inkscape:current-layer="svg2" inkscape:cx="-1066.5045" inkscape:cy="964.94669" inkscape:pageopacity="0" inkscape:pageshadow="2" inkscape:window-height="705" inkscape:window-maximized="1" inkscape:window-width="1366" inkscape:window-x="-8" inkscape:window-y="-8" inkscape:zoom="0.1767767" objecttolerance="10" pagecolor="#ffffff" showgrid="false">
	</sodipodi:namedview>
<path id="path4" inkscape:connector-curvature="0" class="st0" d="M411.9,389.2c-7.6,17.4-16.5,33.5-26.9,48.3
	c-14.1,20.1-25.7,34.1-34.6,41.8c-13.8,12.7-28.6,19.2-44.5,19.6c-11.4,0-25.1-3.2-41.1-9.8c-16-6.5-30.7-9.8-44.2-9.8
	c-14.1,0-29.3,3.2-45.5,9.8c-16.2,6.6-29.3,10-39.3,10.3c-15.2,0.6-30.3-6-45.5-20.1c-9.6-8.4-21.7-22.8-36.2-43.3
	c-15.5-21.8-28.3-47.1-38.3-76C5.4,328.9,0,298.7,0,269.5c0-33.5,7.2-62.3,21.7-86.5c11.4-19.4,26.5-34.8,45.5-46
	c19-11.3,39.4-17,61.5-17.4c12.1,0,27.9,3.7,47.6,11.1c19.6,7.4,32.2,11.1,37.7,11.1c4.1,0,18.1-4.4,41.8-13.1
	c22.4-8.1,41.4-11.4,56.9-10.1c42,3.4,73.6,20,94.6,49.8c-37.6,22.8-56.2,54.7-55.8,95.6c0.3,31.9,11.9,58.4,34.6,79.4
	c10.3,9.8,21.8,17.3,34.6,22.7C417.9,374.1,415,381.8,411.9,389.2L411.9,389.2z M315.5,10c0,25-9.1,48.3-27.3,69.9
	c-22,25.7-48.5,40.5-77.3,38.2c-0.4-3-0.6-6.2-0.6-9.5c0-24,10.4-49.6,29-70.6c9.3-10.6,21-19.5,35.3-26.5
	C288.8,4.5,302.3,0.7,315,0C315.4,3.3,315.5,6.7,315.5,10L315.5,10z"/>
</svg>
