<svg width="40" height="40" viewBox="0 0 40 40" fill="none" xmlns="http://www.w3.org/2000/svg">
<path d="M29.7 28.3L26.4 25.4C27.9 23.7 28.7 21.6 28.7 19.3C28.7 14.2 24.5 10 19.4 10C14.3 10 10 14.2 10 19.3C10 24.4 14.2 28.6 19.3 28.6C21.4 28.6 23.3 27.9 25 26.7L28.4 29.7C28.6 29.9 28.8 29.9 29 29.9C29.3 29.9 29.5 29.8 29.7 29.6C30.1 29.3 30.1 28.7 29.7 28.3ZM19.3 26.7C15.2 26.7 11.9 23.4 11.9 19.3C11.9 15.2 15.2 11.9 19.3 11.9C23.4 11.9 26.7 15.2 26.7 19.3C26.7 23.4 23.4 26.7 19.3 26.7Z" fill="#004436"/>
<path d="M16.5 14.2C15 15 13.9 16.4 13.5 18.2C13.1 20 13.5 21.7 14.6 23.1C14.8 23.3 15.1 23.5 15.4 23.5C15.6 23.5 15.8 23.4 16 23.3C16.4 23 16.5 22.4 16.1 21.9C15.4 21 15.2 19.8 15.4 18.6C15.7 17.4 16.4 16.4 17.4 15.9C17.8 15.7 18 15.1 17.8 14.6C17.6 14.1 17 13.9 16.5 14.2Z" fill="#004436"/>
</svg>
