<svg xmlns="http://www.w3.org/2000/svg" width="24" height="24" viewBox="0 0 24 24"><g id="facebook"><path fill="#1877F2" d="M24,12c0-6.6-5.4-12-12-12S0,5.4,0,12c0,6,4.4,11,10.1,11.9v-8.4h-3V12h3V9.4c0-3,1.8-4.7,4.5-4.7c1.3,0,2.7,0.2,2.7,0.2v3h-1.5c-1.5,0-2,0.9-2,1.9V12h3.3l-0.5,3.5h-2.8v8.4C19.6,23,24,18,24,12z"/><path fill="#fff" d="M16.7,15.5l0.5-3.5h-3.3V9.7c0-0.9,0.5-1.9,2-1.9h1.5v-3c0,0-1.4-0.2-2.7-0.2c-2.7,0-4.5,1.7-4.5,4.7V12h-3v3.5h3v8.4C10.7,24,11.4,24,12,24s1.3,0,1.9-0.1v-8.4H16.7z"/></g></svg>