<svg xmlns="http://www.w3.org/2000/svg" width="24" height="24" viewBox="0 0 24 24"><g id="google_color"><path fill="#4285F4" d="M23.8,12.3c0-0.8-0.1-1.6-0.2-2.4H12.2v4.6h6.5c-0.3,1.5-1.1,2.8-2.4,3.6v3h3.9C22.5,19,23.8,15.9,23.8,12.3z"/><path fill="#34A853" d="M12.2,24c3.2,0,6-1.1,8-2.9l-3.9-3c-1.1,0.7-2.5,1.1-4.1,1.1c-3.1,0-5.8-2.1-6.7-5h-4v3.1C3.6,21.4,7.7,24,12.2,24z"/><path fill="#FBBC04" d="M5.5,14.3C5,12.8,5,11.2,5.5,9.7V6.6h-4c-1.7,3.4-1.7,7.4,0,10.8L5.5,14.3z"/><path fill="#EA4335" d="M12.2,4.7c1.7,0,3.4,0.6,4.6,1.8l0,0l3.4-3.4c-2.2-2-5-3.2-8-3.1C7.7,0,3.6,2.6,1.5,6.6l4,3.1C6.4,6.9,9.1,4.7,12.2,4.7z"/></g></svg>