<svg width="174" height="34" viewBox="0 0 174 34" fill="none" xmlns="http://www.w3.org/2000/svg">
<path d="M131.203 10.729C131.767 11.1748 132.421 11.5909 133.194 11.9773C134.948 12.8689 136.374 13.3741 138.425 13.3741C140.654 13.3741 142.645 12.542 144.428 11.7989L144.517 11.7692C145.736 11.264 147.43 10.5804 149.184 10.5804C150.759 10.5804 152.245 10.9965 154.087 11.9475C154.503 12.1556 154.86 12.3933 155.187 12.5717C155.722 12.8986 156.079 13.1066 156.406 13.1066C156.881 13.1066 157.178 12.8392 157.178 12.3636C157.178 12.0367 157.03 11.7989 156.643 11.472C156.079 10.9965 155.276 10.5804 154.712 10.2832C152.78 9.33216 151.145 8.91608 149.243 8.91608C147.044 8.91608 145.587 9.5402 144.042 10.194C142.497 10.8479 140.208 11.7395 138.395 11.7395C136.76 11.7395 135.631 11.2343 134.442 10.6696C133.58 10.2832 132.986 9.86713 132.57 9.56992C132.154 9.27272 131.857 9.0944 131.589 9.0944C131.024 9.0944 130.727 9.3916 130.727 9.92657C130.727 10.3427 131.084 10.6101 131.203 10.729ZM131.203 17.2675C131.767 17.7133 132.421 18.1294 133.194 18.5157C134.948 19.4073 136.374 19.9126 138.425 19.9126C140.654 19.9126 142.645 19.0804 144.428 18.3374L144.517 18.3077C145.736 17.8024 147.43 17.1189 149.184 17.1189C150.759 17.1189 152.245 17.535 154.087 18.486C154.503 18.694 154.86 18.9318 155.187 19.1101C155.722 19.4371 156.079 19.6451 156.406 19.6451C156.881 19.6451 157.178 19.3776 157.178 18.9021C157.178 18.5752 157.03 18.3374 156.643 18.0105C156.079 17.535 155.276 17.1189 154.712 16.8217C152.78 15.8706 151.145 15.4545 149.243 15.4545C147.044 15.4545 145.587 16.0787 144.042 16.7325C142.497 17.3864 140.208 18.278 138.395 18.278C136.76 18.278 135.631 17.7727 134.442 17.208C133.58 16.8217 132.986 16.4056 132.57 16.1084C132.154 15.8112 131.857 15.6329 131.589 15.6329C131.024 15.6329 130.727 15.9301 130.727 16.465C130.727 16.8811 131.084 17.1486 131.203 17.2675ZM131.203 23.8059C131.767 24.2517 132.421 24.6678 133.194 25.0542C134.948 25.9458 136.374 26.451 138.425 26.451C140.654 26.451 142.645 25.6189 144.428 24.8759L144.517 24.8461C145.736 24.3409 147.43 23.6573 149.184 23.6573C150.759 23.6573 152.245 24.0734 154.087 25.0245C154.503 25.2325 154.86 25.4703 155.187 25.6486C155.722 25.9755 156.079 26.1836 156.406 26.1836C156.881 26.1836 157.178 25.9161 157.178 25.4406C157.178 25.1136 157.03 24.8759 156.643 24.5489C156.079 24.0734 155.276 23.6573 154.712 23.3601C152.78 22.4091 151.145 21.993 149.243 21.993C147.044 21.993 145.587 22.6171 144.042 23.271C142.497 23.9248 140.208 24.8164 138.395 24.8164C136.76 24.8164 135.631 24.3112 134.442 23.7465C133.58 23.3601 132.986 22.944 132.57 22.6468C132.154 22.3496 131.857 22.1713 131.589 22.1713C131.024 22.1713 130.727 22.4685 130.727 23.0035C130.727 23.4196 131.084 23.6871 131.203 23.8059ZM116.045 5.26048C109.329 5.26048 103.86 10.6696 103.86 17.3864C103.86 24.1031 109.329 29.4825 116.045 29.4825C122.762 29.4825 128.231 24.0734 128.231 17.3566C128.231 10.6399 122.762 5.26048 116.045 5.26048ZM116.045 27.9073C110.28 27.9073 105.614 23.1818 105.614 17.3864C105.614 11.5909 110.28 6.86538 116.045 6.86538C121.811 6.86538 126.477 11.5909 126.477 17.3864C126.477 23.1818 121.811 27.9073 116.045 27.9073Z" fill="#016853"/>
<path d="M120.893 11.1555C120.38 11.1555 120.152 11.3873 120.152 11.9669V20.9112L111.801 11.5225C111.782 11.5032 111.554 11.1555 111.079 11.1555C110.584 11.1555 110.356 11.4453 110.356 12.0441V22.8816C110.356 23.3839 110.622 23.6737 111.079 23.6737C111.535 23.6737 111.82 23.3839 111.82 22.901V13.7055L120.095 23.1714C120.418 23.5385 120.646 23.6544 120.989 23.6544C121.407 23.6544 121.616 23.4032 121.616 22.8816V11.9669C121.616 11.426 121.369 11.1555 120.893 11.1555Z" fill="#016853" stroke="#016853" stroke-width="0.38338"/>
<path d="M20.4353 7.45979C19.6329 7.45979 19.2762 7.81643 19.2762 8.70804V22.4685L6.22902 8.02447C6.1993 7.99475 5.84265 7.45979 5.09965 7.45979C4.32692 7.45979 3.97028 7.90559 3.97028 8.82692V25.5C3.97028 26.2727 4.38636 26.7185 5.09965 26.7185C5.81293 26.7185 6.25874 26.2727 6.25874 25.5297V11.3829L19.1871 25.9458C19.6923 26.5105 20.0489 26.6888 20.5839 26.6888C21.2378 26.6888 21.5647 26.3024 21.5647 25.5V8.70804C21.5647 7.87587 21.1783 7.45979 20.4353 7.45979ZM28.757 7.43006C28.0437 7.43006 27.6276 7.90559 27.6276 8.67832V25.4703C27.6276 26.2133 28.1031 26.7482 28.7867 26.7482C29.3514 26.7482 29.9161 26.3322 29.9161 25.4406V8.70804C29.9161 7.90559 29.5 7.43006 28.757 7.43006ZM51.7308 22.3794C51.4633 22.3794 51.0769 22.6171 50.5717 22.9738C49.472 23.6871 47.6591 24.9056 45.0437 24.9056C40.7343 24.9056 37.7028 20.7745 37.7028 17.0594C37.7028 12.3636 41.4773 9.21328 45.0437 9.21328C47.5105 9.21328 48.9668 10.3724 50.007 11.2343C50.5717 11.6801 51.0175 12.0664 51.4633 12.0664C52.1171 12.0664 52.5035 11.7098 52.5035 11.1154C52.5035 10.0157 48.9668 7.16258 45.0734 7.16258C39.7535 7.16258 35.4441 11.5909 35.4441 17.0297C35.4441 22.4091 39.8427 26.9563 45.0437 26.9563C46.7675 26.9563 48.6993 26.5105 50.3042 25.708C51.7605 24.965 52.6818 24.1031 52.6818 23.4493C52.6818 22.7954 52.2955 22.3794 51.7308 22.3794ZM59.8147 7.43006C59.1014 7.43006 58.6853 7.90559 58.6853 8.67832V25.4703C58.6853 26.2133 59.1608 26.7482 59.8444 26.7482C60.4091 26.7482 60.9738 26.3322 60.9738 25.4406V8.70804C60.9738 7.90559 60.5577 7.43006 59.8147 7.43006ZM74.5262 7.43006C73.8129 7.43006 73.3969 7.90559 73.3969 8.67832V25.4703C73.3969 26.2133 73.8724 26.7482 74.5559 26.7482C75.1206 26.7482 75.6853 26.3322 75.6853 25.4406V8.70804C75.6853 7.90559 75.2692 7.43006 74.5262 7.43006Z" fill="#016853"/>
<path d="M59.5769 15.9598H74.4371V18.0402H59.5769V15.9598Z" fill="#016853"/>
<path d="M59.5769 15.9598H74.4371V18.0402H59.5769V15.9598ZM95.0927 24.5787H83.9476V18.0402H93.1609C94.0525 18.0402 94.4388 17.535 94.4388 17C94.4388 16.5245 94.0822 15.9895 93.1311 15.9895H83.9476V9.56993H95.0927C96.014 9.56993 96.3409 9.03496 96.3409 8.5C96.3409 8.20279 96.222 7.51923 95.0927 7.51923H82.8776C82.1049 7.51923 81.6294 7.96503 81.6294 8.76748V25.4406C81.6294 26.243 81.986 26.5996 82.7885 26.5996H95.0927C95.8654 26.5996 96.3409 26.2133 96.3409 25.5297C96.3706 24.965 95.8951 24.5787 95.0927 24.5787Z" fill="#016853"/>
</svg>
