<?xml version="1.0" encoding="UTF-8"?>
<svg id="Layer_1" data-name="Layer 1" xmlns="http://www.w3.org/2000/svg" viewBox="0 0 32 32">
  <defs>
    <style>
      .cls-1 {
        fill: #fff;
      }
    </style>
  </defs>
  <path class="cls-1" d="M16.97,13.79c.11-.16.19-.29.29-.4,1.57-1.7,3.14-3.38,4.7-5.09.28-.31.56-.45.96-.41.27.03.54,0,.94,0-2.13,2.3-4.18,4.52-6.26,6.77,2.33,3.12,4.66,6.23,7.04,9.41-.21.01-.33.03-.46.03-1.44,0-2.88,0-4.32,0-.27,0-.43-.09-.58-.3-1.41-1.9-2.83-3.79-4.25-5.68-.08-.11-.17-.22-.37-.48-.08.16-.12.3-.21.4-1.72,1.87-3.46,3.73-5.18,5.61-.3.32-.59.5-1.03.45-.25-.03-.52,0-.89,0,.18-.2.28-.32.39-.44,1.99-2.15,3.98-4.31,5.98-6.45.26-.28.31-.45.06-.78-2.04-2.69-4.05-5.4-6.07-8.1-.09-.12-.17-.24-.3-.41.21-.01.34-.02.47-.02,1.42,0,2.85,0,4.27,0,.28,0,.45.09.62.31,1.28,1.72,2.56,3.44,3.85,5.15.09.12.18.23.35.44h0ZM22.37,22.98c-.05-.11-.06-.15-.08-.18-3.39-4.53-6.77-9.06-10.16-13.58-.06-.08-.16-.19-.25-.19-.72-.01-1.44,0-2.24,0,.14.2.23.32.32.44,1.13,1.52,2.27,3.03,3.4,4.55,2.15,2.88,4.3,5.76,6.46,8.63.1.14.28.31.43.32.69.03,1.38.01,2.12.01h0Z"/>
</svg>